<?xml version="1.0" encoding="utf-8"?>
<!-- Generator: Adobe Illustrator 24.1.1, SVG Export Plug-In . SVG Version: 6.00 Build 0)  -->
<svg version="1.1" id="Camada_1" xmlns="http://www.w3.org/2000/svg" xmlns:xlink="http://www.w3.org/1999/xlink" x="0px" y="0px"
	 viewBox="0 0 500 374.3" style="enable-background:new 0 0 500 374.3;" xml:space="preserve">
<style type="text/css">
	.st0{fill:#F47521;}
	.st1{opacity:0.7;fill:#FFFFFF;enable-background:new    ;}
	.st2{fill:none;stroke:#263238;stroke-width:2;stroke-miterlimit:10;}
	.st3{fill:#FFFFFF;stroke:#263238;stroke-miterlimit:10;}
	.st4{fill:#F47521;stroke:#263238;stroke-linecap:round;stroke-linejoin:round;}
	.st5{fill:#FFFFFF;stroke:#263238;stroke-linecap:round;stroke-linejoin:round;}
	.st6{fill:none;stroke:#263238;stroke-linecap:round;stroke-linejoin:round;}
	.st7{fill:#263238;stroke:#263238;stroke-linecap:round;stroke-linejoin:round;}
	.st8{fill:none;stroke:#FFFFFF;stroke-linecap:round;stroke-miterlimit:10;}
	.st9{clip-path:url(#SVGID_2_);}
	.st10{opacity:0.24;enable-background:new    ;}
	.st11{fill:#FFFFFF;}
	.st12{clip-path:url(#SVGID_4_);}
	.st13{clip-path:url(#SVGID_6_);}
	.st14{fill:#263238;}
	.st15{clip-path:url(#SVGID_8_);}
	.st16{fill:#FFFFFF;stroke:#F47521;stroke-linecap:round;stroke-linejoin:round;}
</style>
<g id="freepik--background-simple--inject-4">
	<path class="st0" d="M89.6,298.6c0,0,38.2,53.5,107.7,58.9c69.5,5.4,133.7-35,186.7-66.3s72.5-87.1,49.1-134.9
		s-70.6-34.1-124.9-69.6s-63.4-53.1-128.2-53.3S58.1,99.9,56.7,177.5S89.6,298.6,89.6,298.6z"/>
	<path class="st1" d="M89.6,298.6c0,0,38.2,53.5,107.7,58.9c69.5,5.4,133.7-35,186.7-66.3s72.5-87.1,49.1-134.9
		s-70.6-34.1-124.9-69.6s-63.4-53.1-128.2-53.3S58.1,99.9,56.7,177.5S89.6,298.6,89.6,298.6z"/>
</g>
<g id="freepik--Fan--inject-4">
	<line class="st2" x1="217.1" y1="77.5" x2="233.7" y2="77.5"/>
	<path class="st3" d="M224.8,74.4l-2.6,7.8c0,0-77.9,8.3-84.6-3.1s4.7-15.6,31.7-11.4S224.8,74.4,224.8,74.4z"/>
	<line class="st2" x1="284.2" y1="77.5" x2="267.6" y2="77.5"/>
	<path class="st3" d="M276.4,74.4l2.6,7.8c0,0,77.9,8.3,84.6-3.1S359,63.5,332,67.6S276.4,74.4,276.4,74.4z"/>
	<path class="st3" d="M241,92.8c0,0-2.9,16.8,2.3,18.4s17.8,1.2,21.3-3.4s1.1-9.4-2.7-16.4S247.9,83.8,241,92.8z"/>
	<polyline class="st3" points="248.2,27.7 248.2,80.3 253,80.3 253,30.1 	"/>
	<path class="st3" d="M236.4,83.5c9.5,3,19.6,3,29.1,0h7.5v-6.8c0-5-9.9-9-22-9s-22,4-22,9v6.8H236.4z"/>
	<ellipse class="st3" cx="251" cy="83.5" rx="22" ry="9"/>
	<ellipse class="st3" cx="251" cy="83.5" rx="22" ry="9"/>
</g>
<g id="freepik--Coffee--inject-4">
	<polygon class="st4" points="123.9,314.7 102.6,314.7 99.4,279.4 127.1,279.4 	"/>
	<path class="st5" d="M99.5,278.1h27.6c0.8,0,1.5,0.7,1.5,1.5v0.1c0,0.8-0.7,1.5-1.5,1.5H99.5c-0.8,0-1.5-0.7-1.5-1.5v-0.1
		C98,278.8,98.7,278.1,99.5,278.1z"/>
	<path class="st6" d="M100.8,228.8c0.4-1,1.1-1.8,1.9-2.5"/>
	<path class="st6" d="M108.2,276.2c0,0,6.3-1,10.8-8.4s-1.8-11-12.1-19.7c-6.4-5.4-7.8-11.5-7.1-16"/>
	<path class="st6" d="M121.6,275c2.3-1.5,4-3.8,4.7-6.4c1.3-5-0.5-10.8-7.9-15.5c-7.4-4.7-11.3-6-14.7-10.5"/>
	<path class="st6" d="M116.3,277c1.2-0.2,2.3-0.5,3.4-1"/>
</g>
<g id="freepik--Character--inject-4">
	<path class="st7" d="M208.4,220.2c-4.8-5.3-6.7-11.2-5.3-19.3c2.5-14,17.9-29.6,17.9-39.4s6.9-32.6,27.8-33.9
		c20.9-1.4,31.5,9.2,36,32.2s4.2,27.1,9.4,37.8c2.1,4.4,4.5,8.9,5.4,13.8c1.8,9.7-8.8,14.4-16.2,17.1c-20.9,7.5-47.1,12.4-66.8-1.1
		C213.6,225.3,210.9,222.9,208.4,220.2z"/>
	<path class="st8" d="M284.2,177.6c1.1,0.5,2.3,0.9,3.6,1.2"/>
	<path class="st8" d="M255.5,145.8c0,0,8.2,19.5,18,25.9c2.2,1.4,4.1,2.6,5.8,3.5"/>
	<path class="st8" d="M242.8,151.8c-4.7,8.2-13.8,21.2-25.9,26.6"/>
	<path class="st8" d="M246.5,144.7c0,0-0.6,1.3-1.7,3.4"/>
	<path class="st8" d="M224.4,178.8c0,0-15.4,15.3-13.5,33.3"/>
	<path class="st8" d="M228.5,182.1c0,0-7.1,19.5-4.9,31.9"/>
	<path class="st0" d="M235.3,201.6c0,0-35.5,9.6-38.2,10.5s-2.3,7.1-2.3,8.5s-7.9,41.7-7.9,41.7c-2.5,1.6-4.9,3.4-7.1,5.4
		c-3.1,2.9-1.9,6.7-1.9,7.7s0.2,1.3-0.8,2.3s-3.1-0.8-2.7,5.2s-1.7,20,3.6,20.7s8.1,0.2,15.9-2.5c4.6-1.5,8.5-4.8,10.9-9v22.7h96.4
		c0,0,9.8-28.6,10.4-47.4s3.1-46.5-0.4-51.7s-21.7-10.9-37.8-12.9S238.1,200.9,235.3,201.6z"/>
	<g>
		<defs>
			<path id="SVGID_1_" d="M235.3,201.6c0,0-35.5,9.6-38.2,10.5s-2.3,7.1-2.3,8.5s-7.9,41.7-7.9,41.7c-2.5,1.6-4.9,3.4-7.1,5.4
				c-3.1,2.9-1.9,6.7-1.9,7.7s0.2,1.3-0.8,2.3s-3.1-0.8-2.7,5.2s-1.7,20,3.6,20.7s8.1,0.2,15.9-2.5c4.6-1.5,8.5-4.8,10.9-9v22.7
				h96.4c0,0,9.8-28.6,10.4-47.4s3.1-46.5-0.4-51.7s-21.7-10.9-37.8-12.9S238.1,200.9,235.3,201.6z"/>
		</defs>
		<clipPath id="SVGID_2_">
			<use xlink:href="#SVGID_1_"  style="overflow:visible;"/>
		</clipPath>
		<g class="st9">
			<path class="st10" d="M307.6,212.5c0.5,0.6,0.7,1.1,0.3,1.3c-1.3,0.6-7.5,2.6-8.3,5.3s-0.4-8-1.9-4.9s-3.4,15.4-11.3,40.2
				c-6.3,19.8-9.7,45.1-7.6,60.3h22.4c0,0,9.8-28.6,10.4-47.4s3.1-46.5-0.4-51.7C310.3,214.4,309,213.3,307.6,212.5z"/>
			<path class="st4" d="M236.6,196.3c-1.3,0.9-2.4,2.2-3.1,3.6c-1.3,2.7-12.7,23.6-13.6,24.6s5.2,0.8,7.7-0.4s7.1-1.1,7.1-1.1
				l4.4,3.5l13.6,5.4c0,0,6.1-4.4,9.2-6.9s4.4-3.5,4.4-3.5c2.7,0.9,5.2,2.1,7.7,3.5c3.1,1.9,1.9,2.9,3.1,1.9s0.6-2.9-1-5.6
				s-6.3-17.5-12.3-23S243.7,190.9,236.6,196.3z"/>
			<polygon class="st4" points="264.4,244.1 290.9,244.3 290.4,251.7 276.7,258.7 264.4,251.9 			"/>
			<polygon class="st4" points="204.9,241.8 231.4,241.9 230.8,249.4 217.2,256.3 204.9,249.6 			"/>
			<path class="st10" d="M205.2,299.2c0,0-1.5-56.8-0.4-63.2s-6.8-25.6-6.4-15.4s3,25.5,3.2,29.3s-8.9,1.9-8.1,6.8
				c0.8,4.9,6,4.9,7.5,12.4s-11.3,7.1-11.3,11.3s4.5,9.8,0.8,13.2s-5.9-1.1-5.9-1.1c1.3,3.6,1.6,7.4,0.7,11.2
				c2.9-0.6,5.8-1.4,8.6-2.4c4.6-1.5,8.5-4.8,10.9-9v8.2L205.2,299.2z"/>
		</g>
	</g>
	<path class="st6" d="M235.3,201.6c0,0-35.5,9.6-38.2,10.5s-2.3,7.1-2.3,8.5s-7.9,41.7-7.9,41.7c-2.5,1.6-4.9,3.4-7.1,5.4
		c-3.1,2.9-1.9,6.7-1.9,7.7s0.2,1.3-0.8,2.3s-3.1-0.8-2.7,5.2s-1.7,20,3.6,20.7s8.1,0.2,15.9-2.5c4.6-1.5,8.5-4.8,10.9-9v22.7h96.4
		c0,0,9.8-28.6,10.4-47.4s3.1-46.5-0.4-51.7s-21.7-10.9-37.8-12.9S238.1,200.9,235.3,201.6z"/>
	<path class="st6" d="M204.9,259.2v33.2c0,0-1.7-21.1-6.3-26.5"/>
	<path class="st6" d="M179,277.1c0,0,10.2,3.6,12.3,11.1s-0.4,12.3-0.4,12.3"/>
	<path class="st4" d="M166.8,289.7c0,0,7.4-3.4,8-4s7.1-0.3,9.8,6.6s0.8,10.3-0.6,11s-8.5,2.8-10.5,2.8S163.3,292.3,166.8,289.7z"/>
	<path class="st11" d="M237.7,199.7c0,0-3.3,114.7-1.9,114.7h23.4c0,0,0.2-83.6,1.7-91.5s5.2-21.9,4.6-25.7s-26.7-1.7-26.7-1.7
		C238.3,196.8,237.9,198.3,237.7,199.7z"/>
	<g>
		<defs>
			<path id="SVGID_3_" d="M237.7,199.7c0,0-3.3,114.7-1.9,114.7h23.4c0,0,0.2-83.6,1.7-91.5s5.2-21.9,4.6-25.7s-26.7-1.7-26.7-1.7
				C238.3,196.8,237.9,198.3,237.7,199.7z"/>
		</defs>
		<clipPath id="SVGID_4_">
			<use xlink:href="#SVGID_3_"  style="overflow:visible;"/>
		</clipPath>
		<g class="st12">
			<path class="st0" d="M237.7,199.7c0,0-3.3,114.7-1.9,114.7h23.4c0,0,0.2-83.6,1.7-91.5s5.2-21.9,4.6-25.7s-26.7-1.7-26.7-1.7
				C238.3,196.8,237.9,198.3,237.7,199.7z"/>
			<path class="st1" d="M237.7,199.7c0,0-3.3,114.7-1.9,114.7h23.4c0,0,0.2-83.6,1.7-91.5s5.2-21.9,4.6-25.7s-26.7-1.7-26.7-1.7
				C238.3,196.8,237.9,198.3,237.7,199.7z"/>
		</g>
	</g>
	<path class="st6" d="M237.7,199.7c0,0-3.3,114.7-1.9,114.7h23.4c0,0,0.2-83.6,1.7-91.5s5.2-21.9,4.6-25.7s-26.7-1.7-26.7-1.7
		C238.3,196.8,237.9,198.3,237.7,199.7z"/>
	<path class="st11" d="M260.8,223.9c-7.7,2.5-15.9,2.8-23.8,0.9c-0.9,34.3-2.2,89.7-1.3,89.7h23.4
		C259.3,314.4,259.4,236.1,260.8,223.9z"/>
	<g>
		<defs>
			<path id="SVGID_5_" d="M260.8,223.9c-7.7,2.5-15.9,2.8-23.8,0.9c-0.9,34.3-2.2,89.7-1.3,89.7h23.4
				C259.3,314.4,259.4,236.1,260.8,223.9z"/>
		</defs>
		<clipPath id="SVGID_6_">
			<use xlink:href="#SVGID_5_"  style="overflow:visible;"/>
		</clipPath>
		<g class="st13">
			<path class="st14" d="M259.3,302.8c0-3.1,0-6.7,0.1-10.5h-23.7c0,3.8-0.1,7.4-0.1,10.5H259.3z"/>
			<path class="st14" d="M236,272.3c-0.1,3.6-0.1,7.1-0.2,10.5h23.7c0-3.4,0.1-7,0.1-10.5H236z"/>
			<path class="st14" d="M236.4,252.3c-0.1,3.5-0.2,7-0.2,10.5h23.5c0-3.6,0.1-7.1,0.2-10.5H236.4z"/>
			<path class="st14" d="M236.9,232.3c-0.1,3.4-0.2,6.9-0.3,10.5H260c0.1-3.9,0.2-7.5,0.3-10.5H236.9z"/>
		</g>
	</g>
	<path class="st6" d="M260.8,223.9c-7.7,2.5-15.9,2.8-23.8,0.9c-0.9,34.3-2.2,89.7-1.3,89.7h23.4
		C259.3,314.4,259.4,236.1,260.8,223.9z"/>
	<path class="st5" d="M248.9,150.1c0,0-3.5,10.9-18.4,20.7c0,0-1,13.6,3.1,23.8c4.1,10.2,14.8,18.2,19.4,17.3s13.6-11.3,16.7-18.6
		s3.1-20.4,3.1-20.4S257.1,162.8,248.9,150.1z"/>
	<path class="st6" d="M247.7,187.2c0,0-0.4,6.3,0.6,6.9s2.7,0.4,2.9-1.7"/>
	<path class="st6" d="M245.8,198.1c0,0,5.9,1.1,9.2-0.8"/>
	<path class="st6" d="M245.9,170.5c0,0-7.7-3.2-11.9,2.2"/>
	<path class="st6" d="M253.4,172.9c0,0,5.6-5.6,13.5-0.6"/>
	<path class="st6" d="M236.4,180.3c0,0,3.6,3.5,9.6,1"/>
	<path class="st6" d="M254.6,181.1c0,0,5,2.3,9.2-0.4"/>
	<path class="st7" d="M243.2,182.4c0,0,2.1,0.1,0.1,0.8s-3.9,0.4-5.9-1.3C237.5,181.8,241.3,182.3,243.2,182.4z"/>
	<path class="st7" d="M257.1,181.9c0,0-2-0.2-0.2,0.8s3.8,0.9,6-0.6C262.8,182.1,259,182.1,257.1,181.9z"/>
	<path class="st5" d="M287.5,248.7l-3.1-31.7c0,0-6.5-1.3-8.8-2.9s-5-3.5-5-3.5s-1.5,1.3-2.7,0s-4.8-4-5.4-6.1s3.5-5,6-8.4
		s5.2-6.7,7.1-6.5s10.2,8.6,14.4,15.2s6,8.3,6.1,10.6s4,14,4,14l1,19.8L287.5,248.7z"/>
	<path class="st6" d="M270.6,210.7c0,0-3.8-3.7-3.8-4.9"/>
	<path class="st0" d="M280.9,230.3l3.6,20.4l4-22.7l15.5-1.7c0,0-0.1,24.2-0.1,30.3c0,6.1,2.7,34.2,3.5,44s-4.4,13-11.5,13.2
		s-12.9-6.3-15.2-19.6s0.4-37.4-0.8-41.5c-1.1-4-6-20.5-6-20.5L280.9,230.3z"/>
	<g>
		<defs>
			<path id="SVGID_7_" d="M280.9,230.3l3.6,20.4l4-22.7l15.5-1.7c0,0-0.1,24.2-0.1,30.3c0,6.1,2.7,34.2,3.5,44s-4.4,13-11.5,13.2
				s-12.9-6.3-15.2-19.6s0.4-37.4-0.8-41.5c-1.1-4-6-20.5-6-20.5L280.9,230.3z"/>
		</defs>
		<clipPath id="SVGID_8_">
			<use xlink:href="#SVGID_7_"  style="overflow:visible;"/>
		</clipPath>
		<g class="st15">
			<path class="st10" d="M298.4,313.6c5.8-0.9,9.7-4.4,9.1-13c-0.8-9.8-3.5-37.8-3.5-44c0-6.2,0.2-30.3,0.2-30.3l-2.5,0.3
				c-1.5,4.8-9.5,33.2-5.4,53.4c4.5,22.2,8.3,24.4,2.3,33.5L298.4,313.6z"/>
		</g>
	</g>
	<path class="st6" d="M280.9,230.3l3.6,20.4l4-22.7l15.5-1.7c0,0-0.1,24.2-0.1,30.3c0,6.1,2.7,34.2,3.5,44s-4.4,13-11.5,13.2
		s-12.9-6.3-15.2-19.6s0.4-37.4-0.8-41.5c-1.1-4-6-20.5-6-20.5L280.9,230.3z"/>
	<path class="st5" d="M158.9,309.6c0,0-0.5,3.1,2.3,3.8s9.5-1,10.1-2.5c0.3-0.8,0.2-1.7-0.4-2.4h-6.1
		C164.7,308.6,160.1,307.1,158.9,309.6z"/>
	<polygon class="st7" points="131.4,276.3 156.8,294 158.7,291.5 133.2,273.6 	"/>
	<polygon class="st5" points="137.3,280.4 139.3,277.9 133.2,273.6 131.4,276.3 	"/>
	<path class="st5" d="M162.9,309.4c4-0.2,7.8-1.8,10.7-4.5c4.6-4.4,4.9-7.4-1.3-13.8s-19.6,1.1-20.1,3.9S162.9,309.4,162.9,309.4z"
		/>
	<path class="st5" d="M176.5,297.8c0,0-1.7,3.6-3.4,5s-4.3,1.7-5.8-0.5s-3.1-9.1-4.5-9.2s-8.1-2.4-10-5s-1.8-4.7,2.4-3.4
		s15.6,2.7,15.6,2.7s2.7,1.6,4.5,7.3"/>
	<path class="st5" d="M154.7,306.3c0.6,0.7,2.6,4.1,3.5,4.3s6.6-3.4,8.8-6.2s-1.9-6.6-3.1-7.1S154.7,306.3,154.7,306.3z"/>
	<path class="st5" d="M151.8,296.3c0,0-5,3-3.8,5.1s5.2,5.2,6.5,4.6s9.9-4.6,9.9-6.8s-0.2-4.8-4.6-4.4
		C157.1,295.1,154.4,295.6,151.8,296.3z"/>
	<path class="st5" d="M146.8,288c0,0-2.4,4.9-0.2,7.1s16,2.1,16.7-0.4s-4.5-3.1-8.3-4.7S147.3,286.9,146.8,288z"/>
	<path class="st5" d="M200.2,313.8c0,0-0.4-6.5-6.1-8.8s-8.8-1.4-21.7,2.1c-8.1,2.1-16.4,3.4-24.8,3.8v2.9H200.2z"/>
	<path class="st5" d="M200,313.8c0,0,0.4-6.5,6.1-8.8s8.8-1.4,21.7,2.1c8.1,2.1,16.4,3.4,24.8,3.8v2.9H200z"/>
	<rect x="146.3" y="312.6" class="st7" width="108.5" height="2.1"/>
</g>
<g id="freepik--Device--inject-4">
	<line class="st6" x1="83" y1="314.7" x2="431.7" y2="314.7"/>
	<polygon class="st5" points="427.7,256.7 353.7,256.7 328.6,314.9 402.5,314.9 	"/>
	<polygon class="st7" points="430.5,256.7 356.6,256.7 331.5,314.9 405.4,314.9 	"/>
	<path class="st16" d="M386.9,292.1c-1.9,3-5.5,4.2-8,2.6s-3-5.3-1.1-8.3s5.5-4.2,8-2.6S388.8,289.1,386.9,292.1z"/>
	<rect x="275.6" y="312.6" class="st5" width="54" height="2.1"/>
</g>
</svg>
